G75*
%MOIN*%
%OFA0B0*%
%FSLAX25Y25*%
%IPPOS*%
%LPD*%
%AMOC8*
5,1,8,0,0,1.08239X$1,22.5*
%
%ADD10C,0.00800*%
%ADD11C,0.01000*%
%ADD12R,0.02000X0.07000*%
%ADD13R,0.05000X0.03500*%
%ADD14C,0.00600*%
%ADD15C,0.00400*%
D10*
X0068240Y0013400D02*
X0068240Y0017400D01*
X0068240Y0026900D01*
X0068240Y0030400D01*
X0068240Y0026900D02*
X0069240Y0026900D01*
X0069240Y0017400D01*
X0068240Y0017400D01*
X0076240Y0009900D02*
X0077240Y0009900D01*
X0077240Y0008900D01*
X0083240Y0008900D01*
X0083240Y0009900D01*
X0084240Y0009900D01*
X0092240Y0013400D02*
X0092240Y0016900D01*
X0092240Y0026900D01*
X0092240Y0030400D01*
X0092240Y0026900D02*
X0091240Y0026900D01*
X0091240Y0016900D01*
X0092240Y0016900D01*
X0079240Y0021900D02*
X0079242Y0021963D01*
X0079248Y0022025D01*
X0079258Y0022087D01*
X0079271Y0022149D01*
X0079289Y0022209D01*
X0079310Y0022268D01*
X0079335Y0022326D01*
X0079364Y0022382D01*
X0079396Y0022436D01*
X0079431Y0022488D01*
X0079469Y0022537D01*
X0079511Y0022585D01*
X0079555Y0022629D01*
X0079603Y0022671D01*
X0079652Y0022709D01*
X0079704Y0022744D01*
X0079758Y0022776D01*
X0079814Y0022805D01*
X0079872Y0022830D01*
X0079931Y0022851D01*
X0079991Y0022869D01*
X0080053Y0022882D01*
X0080115Y0022892D01*
X0080177Y0022898D01*
X0080240Y0022900D01*
X0080303Y0022898D01*
X0080365Y0022892D01*
X0080427Y0022882D01*
X0080489Y0022869D01*
X0080549Y0022851D01*
X0080608Y0022830D01*
X0080666Y0022805D01*
X0080722Y0022776D01*
X0080776Y0022744D01*
X0080828Y0022709D01*
X0080877Y0022671D01*
X0080925Y0022629D01*
X0080969Y0022585D01*
X0081011Y0022537D01*
X0081049Y0022488D01*
X0081084Y0022436D01*
X0081116Y0022382D01*
X0081145Y0022326D01*
X0081170Y0022268D01*
X0081191Y0022209D01*
X0081209Y0022149D01*
X0081222Y0022087D01*
X0081232Y0022025D01*
X0081238Y0021963D01*
X0081240Y0021900D01*
X0081238Y0021837D01*
X0081232Y0021775D01*
X0081222Y0021713D01*
X0081209Y0021651D01*
X0081191Y0021591D01*
X0081170Y0021532D01*
X0081145Y0021474D01*
X0081116Y0021418D01*
X0081084Y0021364D01*
X0081049Y0021312D01*
X0081011Y0021263D01*
X0080969Y0021215D01*
X0080925Y0021171D01*
X0080877Y0021129D01*
X0080828Y0021091D01*
X0080776Y0021056D01*
X0080722Y0021024D01*
X0080666Y0020995D01*
X0080608Y0020970D01*
X0080549Y0020949D01*
X0080489Y0020931D01*
X0080427Y0020918D01*
X0080365Y0020908D01*
X0080303Y0020902D01*
X0080240Y0020900D01*
X0080177Y0020902D01*
X0080115Y0020908D01*
X0080053Y0020918D01*
X0079991Y0020931D01*
X0079931Y0020949D01*
X0079872Y0020970D01*
X0079814Y0020995D01*
X0079758Y0021024D01*
X0079704Y0021056D01*
X0079652Y0021091D01*
X0079603Y0021129D01*
X0079555Y0021171D01*
X0079511Y0021215D01*
X0079469Y0021263D01*
X0079431Y0021312D01*
X0079396Y0021364D01*
X0079364Y0021418D01*
X0079335Y0021474D01*
X0079310Y0021532D01*
X0079289Y0021591D01*
X0079271Y0021651D01*
X0079258Y0021713D01*
X0079248Y0021775D01*
X0079242Y0021837D01*
X0079240Y0021900D01*
X0073240Y0021900D02*
X0073242Y0022072D01*
X0073248Y0022243D01*
X0073259Y0022415D01*
X0073274Y0022586D01*
X0073293Y0022757D01*
X0073316Y0022927D01*
X0073343Y0023097D01*
X0073375Y0023266D01*
X0073410Y0023434D01*
X0073450Y0023601D01*
X0073494Y0023767D01*
X0073541Y0023932D01*
X0073593Y0024096D01*
X0073649Y0024258D01*
X0073709Y0024419D01*
X0073773Y0024579D01*
X0073841Y0024737D01*
X0073912Y0024893D01*
X0073987Y0025047D01*
X0074067Y0025200D01*
X0074149Y0025350D01*
X0074236Y0025499D01*
X0074326Y0025645D01*
X0074420Y0025789D01*
X0074517Y0025931D01*
X0074618Y0026070D01*
X0074722Y0026207D01*
X0074829Y0026341D01*
X0074940Y0026472D01*
X0075053Y0026601D01*
X0075170Y0026727D01*
X0075290Y0026850D01*
X0075413Y0026970D01*
X0075539Y0027087D01*
X0075668Y0027200D01*
X0075799Y0027311D01*
X0075933Y0027418D01*
X0076070Y0027522D01*
X0076209Y0027623D01*
X0076351Y0027720D01*
X0076495Y0027814D01*
X0076641Y0027904D01*
X0076790Y0027991D01*
X0076940Y0028073D01*
X0077093Y0028153D01*
X0077247Y0028228D01*
X0077403Y0028299D01*
X0077561Y0028367D01*
X0077721Y0028431D01*
X0077882Y0028491D01*
X0078044Y0028547D01*
X0078208Y0028599D01*
X0078373Y0028646D01*
X0078539Y0028690D01*
X0078706Y0028730D01*
X0078874Y0028765D01*
X0079043Y0028797D01*
X0079213Y0028824D01*
X0079383Y0028847D01*
X0079554Y0028866D01*
X0079725Y0028881D01*
X0079897Y0028892D01*
X0080068Y0028898D01*
X0080240Y0028900D01*
X0080412Y0028898D01*
X0080583Y0028892D01*
X0080755Y0028881D01*
X0080926Y0028866D01*
X0081097Y0028847D01*
X0081267Y0028824D01*
X0081437Y0028797D01*
X0081606Y0028765D01*
X0081774Y0028730D01*
X0081941Y0028690D01*
X0082107Y0028646D01*
X0082272Y0028599D01*
X0082436Y0028547D01*
X0082598Y0028491D01*
X0082759Y0028431D01*
X0082919Y0028367D01*
X0083077Y0028299D01*
X0083233Y0028228D01*
X0083387Y0028153D01*
X0083540Y0028073D01*
X0083690Y0027991D01*
X0083839Y0027904D01*
X0083985Y0027814D01*
X0084129Y0027720D01*
X0084271Y0027623D01*
X0084410Y0027522D01*
X0084547Y0027418D01*
X0084681Y0027311D01*
X0084812Y0027200D01*
X0084941Y0027087D01*
X0085067Y0026970D01*
X0085190Y0026850D01*
X0085310Y0026727D01*
X0085427Y0026601D01*
X0085540Y0026472D01*
X0085651Y0026341D01*
X0085758Y0026207D01*
X0085862Y0026070D01*
X0085963Y0025931D01*
X0086060Y0025789D01*
X0086154Y0025645D01*
X0086244Y0025499D01*
X0086331Y0025350D01*
X0086413Y0025200D01*
X0086493Y0025047D01*
X0086568Y0024893D01*
X0086639Y0024737D01*
X0086707Y0024579D01*
X0086771Y0024419D01*
X0086831Y0024258D01*
X0086887Y0024096D01*
X0086939Y0023932D01*
X0086986Y0023767D01*
X0087030Y0023601D01*
X0087070Y0023434D01*
X0087105Y0023266D01*
X0087137Y0023097D01*
X0087164Y0022927D01*
X0087187Y0022757D01*
X0087206Y0022586D01*
X0087221Y0022415D01*
X0087232Y0022243D01*
X0087238Y0022072D01*
X0087240Y0021900D01*
X0087238Y0021728D01*
X0087232Y0021557D01*
X0087221Y0021385D01*
X0087206Y0021214D01*
X0087187Y0021043D01*
X0087164Y0020873D01*
X0087137Y0020703D01*
X0087105Y0020534D01*
X0087070Y0020366D01*
X0087030Y0020199D01*
X0086986Y0020033D01*
X0086939Y0019868D01*
X0086887Y0019704D01*
X0086831Y0019542D01*
X0086771Y0019381D01*
X0086707Y0019221D01*
X0086639Y0019063D01*
X0086568Y0018907D01*
X0086493Y0018753D01*
X0086413Y0018600D01*
X0086331Y0018450D01*
X0086244Y0018301D01*
X0086154Y0018155D01*
X0086060Y0018011D01*
X0085963Y0017869D01*
X0085862Y0017730D01*
X0085758Y0017593D01*
X0085651Y0017459D01*
X0085540Y0017328D01*
X0085427Y0017199D01*
X0085310Y0017073D01*
X0085190Y0016950D01*
X0085067Y0016830D01*
X0084941Y0016713D01*
X0084812Y0016600D01*
X0084681Y0016489D01*
X0084547Y0016382D01*
X0084410Y0016278D01*
X0084271Y0016177D01*
X0084129Y0016080D01*
X0083985Y0015986D01*
X0083839Y0015896D01*
X0083690Y0015809D01*
X0083540Y0015727D01*
X0083387Y0015647D01*
X0083233Y0015572D01*
X0083077Y0015501D01*
X0082919Y0015433D01*
X0082759Y0015369D01*
X0082598Y0015309D01*
X0082436Y0015253D01*
X0082272Y0015201D01*
X0082107Y0015154D01*
X0081941Y0015110D01*
X0081774Y0015070D01*
X0081606Y0015035D01*
X0081437Y0015003D01*
X0081267Y0014976D01*
X0081097Y0014953D01*
X0080926Y0014934D01*
X0080755Y0014919D01*
X0080583Y0014908D01*
X0080412Y0014902D01*
X0080240Y0014900D01*
X0080068Y0014902D01*
X0079897Y0014908D01*
X0079725Y0014919D01*
X0079554Y0014934D01*
X0079383Y0014953D01*
X0079213Y0014976D01*
X0079043Y0015003D01*
X0078874Y0015035D01*
X0078706Y0015070D01*
X0078539Y0015110D01*
X0078373Y0015154D01*
X0078208Y0015201D01*
X0078044Y0015253D01*
X0077882Y0015309D01*
X0077721Y0015369D01*
X0077561Y0015433D01*
X0077403Y0015501D01*
X0077247Y0015572D01*
X0077093Y0015647D01*
X0076940Y0015727D01*
X0076790Y0015809D01*
X0076641Y0015896D01*
X0076495Y0015986D01*
X0076351Y0016080D01*
X0076209Y0016177D01*
X0076070Y0016278D01*
X0075933Y0016382D01*
X0075799Y0016489D01*
X0075668Y0016600D01*
X0075539Y0016713D01*
X0075413Y0016830D01*
X0075290Y0016950D01*
X0075170Y0017073D01*
X0075053Y0017199D01*
X0074940Y0017328D01*
X0074829Y0017459D01*
X0074722Y0017593D01*
X0074618Y0017730D01*
X0074517Y0017869D01*
X0074420Y0018011D01*
X0074326Y0018155D01*
X0074236Y0018301D01*
X0074149Y0018450D01*
X0074067Y0018600D01*
X0073987Y0018753D01*
X0073912Y0018907D01*
X0073841Y0019063D01*
X0073773Y0019221D01*
X0073709Y0019381D01*
X0073649Y0019542D01*
X0073593Y0019704D01*
X0073541Y0019868D01*
X0073494Y0020033D01*
X0073450Y0020199D01*
X0073410Y0020366D01*
X0073375Y0020534D01*
X0073343Y0020703D01*
X0073316Y0020873D01*
X0073293Y0021043D01*
X0073274Y0021214D01*
X0073259Y0021385D01*
X0073248Y0021557D01*
X0073242Y0021728D01*
X0073240Y0021900D01*
X0076240Y0033900D02*
X0077240Y0033900D01*
X0077240Y0034900D01*
X0083240Y0034900D01*
X0083240Y0033900D01*
X0084240Y0033900D01*
X0072287Y0076254D02*
X0072287Y0079754D01*
X0075787Y0079754D01*
X0075787Y0094754D01*
X0072287Y0094754D01*
X0068787Y0094754D01*
X0068787Y0079754D01*
X0072287Y0079754D01*
X0060161Y0087648D02*
X0053862Y0087648D01*
X0060161Y0087648D02*
X0060161Y0093947D01*
X0072287Y0094754D02*
X0072287Y0098254D01*
X0060161Y0115207D02*
X0060161Y0121506D01*
X0003862Y0121506D01*
X0003862Y0087648D01*
X0035161Y0087648D01*
X0102236Y0088892D02*
X0102236Y0080892D01*
X0102238Y0080832D01*
X0102243Y0080771D01*
X0102252Y0080712D01*
X0102265Y0080653D01*
X0102281Y0080594D01*
X0102301Y0080537D01*
X0102324Y0080482D01*
X0102351Y0080427D01*
X0102380Y0080375D01*
X0102413Y0080324D01*
X0102449Y0080275D01*
X0102487Y0080229D01*
X0102529Y0080185D01*
X0102573Y0080143D01*
X0102619Y0080105D01*
X0102668Y0080069D01*
X0102719Y0080036D01*
X0102771Y0080007D01*
X0102826Y0079980D01*
X0102881Y0079957D01*
X0102938Y0079937D01*
X0102997Y0079921D01*
X0103056Y0079908D01*
X0103115Y0079899D01*
X0103176Y0079894D01*
X0103236Y0079892D01*
X0120236Y0079892D01*
X0120296Y0079894D01*
X0120357Y0079899D01*
X0120416Y0079908D01*
X0120475Y0079921D01*
X0120534Y0079937D01*
X0120591Y0079957D01*
X0120646Y0079980D01*
X0120701Y0080007D01*
X0120753Y0080036D01*
X0120804Y0080069D01*
X0120853Y0080105D01*
X0120899Y0080143D01*
X0120943Y0080185D01*
X0120985Y0080229D01*
X0121023Y0080275D01*
X0121059Y0080324D01*
X0121092Y0080375D01*
X0121121Y0080427D01*
X0121148Y0080482D01*
X0121171Y0080537D01*
X0121191Y0080594D01*
X0121207Y0080653D01*
X0121220Y0080712D01*
X0121229Y0080771D01*
X0121234Y0080832D01*
X0121236Y0080892D01*
X0121236Y0088892D01*
X0121234Y0088952D01*
X0121229Y0089013D01*
X0121220Y0089072D01*
X0121207Y0089131D01*
X0121191Y0089190D01*
X0121171Y0089247D01*
X0121148Y0089302D01*
X0121121Y0089357D01*
X0121092Y0089409D01*
X0121059Y0089460D01*
X0121023Y0089509D01*
X0120985Y0089555D01*
X0120943Y0089599D01*
X0120899Y0089641D01*
X0120853Y0089679D01*
X0120804Y0089715D01*
X0120753Y0089748D01*
X0120701Y0089777D01*
X0120646Y0089804D01*
X0120591Y0089827D01*
X0120534Y0089847D01*
X0120475Y0089863D01*
X0120416Y0089876D01*
X0120357Y0089885D01*
X0120296Y0089890D01*
X0120236Y0089892D01*
X0103236Y0089892D01*
X0103176Y0089890D01*
X0103115Y0089885D01*
X0103056Y0089876D01*
X0102997Y0089863D01*
X0102938Y0089847D01*
X0102881Y0089827D01*
X0102826Y0089804D01*
X0102771Y0089777D01*
X0102719Y0089748D01*
X0102668Y0089715D01*
X0102619Y0089679D01*
X0102573Y0089641D01*
X0102529Y0089599D01*
X0102487Y0089555D01*
X0102449Y0089509D01*
X0102413Y0089460D01*
X0102380Y0089409D01*
X0102351Y0089357D01*
X0102324Y0089302D01*
X0102301Y0089247D01*
X0102281Y0089190D01*
X0102265Y0089131D01*
X0102252Y0089072D01*
X0102243Y0089013D01*
X0102238Y0088952D01*
X0102236Y0088892D01*
X0110236Y0084892D02*
X0110736Y0084892D01*
X0112736Y0084892D02*
X0113236Y0084892D01*
X0129795Y0080892D02*
X0129795Y0088892D01*
X0129797Y0088952D01*
X0129802Y0089013D01*
X0129811Y0089072D01*
X0129824Y0089131D01*
X0129840Y0089190D01*
X0129860Y0089247D01*
X0129883Y0089302D01*
X0129910Y0089357D01*
X0129939Y0089409D01*
X0129972Y0089460D01*
X0130008Y0089509D01*
X0130046Y0089555D01*
X0130088Y0089599D01*
X0130132Y0089641D01*
X0130178Y0089679D01*
X0130227Y0089715D01*
X0130278Y0089748D01*
X0130330Y0089777D01*
X0130385Y0089804D01*
X0130440Y0089827D01*
X0130497Y0089847D01*
X0130556Y0089863D01*
X0130615Y0089876D01*
X0130674Y0089885D01*
X0130735Y0089890D01*
X0130795Y0089892D01*
X0147795Y0089892D01*
X0147855Y0089890D01*
X0147916Y0089885D01*
X0147975Y0089876D01*
X0148034Y0089863D01*
X0148093Y0089847D01*
X0148150Y0089827D01*
X0148205Y0089804D01*
X0148260Y0089777D01*
X0148312Y0089748D01*
X0148363Y0089715D01*
X0148412Y0089679D01*
X0148458Y0089641D01*
X0148502Y0089599D01*
X0148544Y0089555D01*
X0148582Y0089509D01*
X0148618Y0089460D01*
X0148651Y0089409D01*
X0148680Y0089357D01*
X0148707Y0089302D01*
X0148730Y0089247D01*
X0148750Y0089190D01*
X0148766Y0089131D01*
X0148779Y0089072D01*
X0148788Y0089013D01*
X0148793Y0088952D01*
X0148795Y0088892D01*
X0148795Y0080892D01*
X0148793Y0080832D01*
X0148788Y0080771D01*
X0148779Y0080712D01*
X0148766Y0080653D01*
X0148750Y0080594D01*
X0148730Y0080537D01*
X0148707Y0080482D01*
X0148680Y0080427D01*
X0148651Y0080375D01*
X0148618Y0080324D01*
X0148582Y0080275D01*
X0148544Y0080229D01*
X0148502Y0080185D01*
X0148458Y0080143D01*
X0148412Y0080105D01*
X0148363Y0080069D01*
X0148312Y0080036D01*
X0148260Y0080007D01*
X0148205Y0079980D01*
X0148150Y0079957D01*
X0148093Y0079937D01*
X0148034Y0079921D01*
X0147975Y0079908D01*
X0147916Y0079899D01*
X0147855Y0079894D01*
X0147795Y0079892D01*
X0130795Y0079892D01*
X0130735Y0079894D01*
X0130674Y0079899D01*
X0130615Y0079908D01*
X0130556Y0079921D01*
X0130497Y0079937D01*
X0130440Y0079957D01*
X0130385Y0079980D01*
X0130330Y0080007D01*
X0130278Y0080036D01*
X0130227Y0080069D01*
X0130178Y0080105D01*
X0130132Y0080143D01*
X0130088Y0080185D01*
X0130046Y0080229D01*
X0130008Y0080275D01*
X0129972Y0080324D01*
X0129939Y0080375D01*
X0129910Y0080427D01*
X0129883Y0080482D01*
X0129860Y0080537D01*
X0129840Y0080594D01*
X0129824Y0080653D01*
X0129811Y0080712D01*
X0129802Y0080771D01*
X0129797Y0080832D01*
X0129795Y0080892D01*
X0137795Y0084892D02*
X0138295Y0084892D01*
X0140295Y0084892D02*
X0140795Y0084892D01*
X0175102Y0086703D02*
X0190102Y0086703D01*
X0172602Y0096703D02*
X0172605Y0096948D01*
X0172614Y0097194D01*
X0172629Y0097439D01*
X0172650Y0097683D01*
X0172677Y0097927D01*
X0172710Y0098170D01*
X0172749Y0098413D01*
X0172794Y0098654D01*
X0172845Y0098894D01*
X0172902Y0099133D01*
X0172964Y0099370D01*
X0173033Y0099606D01*
X0173107Y0099840D01*
X0173187Y0100072D01*
X0173272Y0100302D01*
X0173363Y0100530D01*
X0173460Y0100755D01*
X0173562Y0100979D01*
X0173670Y0101199D01*
X0173783Y0101417D01*
X0173901Y0101632D01*
X0174025Y0101844D01*
X0174153Y0102053D01*
X0174287Y0102259D01*
X0174426Y0102461D01*
X0174570Y0102660D01*
X0174719Y0102855D01*
X0174872Y0103047D01*
X0175030Y0103235D01*
X0175192Y0103419D01*
X0175360Y0103598D01*
X0175531Y0103774D01*
X0175707Y0103945D01*
X0175886Y0104113D01*
X0176070Y0104275D01*
X0176258Y0104433D01*
X0176450Y0104586D01*
X0176645Y0104735D01*
X0176844Y0104879D01*
X0177046Y0105018D01*
X0177252Y0105152D01*
X0177461Y0105280D01*
X0177673Y0105404D01*
X0177888Y0105522D01*
X0178106Y0105635D01*
X0178326Y0105743D01*
X0178550Y0105845D01*
X0178775Y0105942D01*
X0179003Y0106033D01*
X0179233Y0106118D01*
X0179465Y0106198D01*
X0179699Y0106272D01*
X0179935Y0106341D01*
X0180172Y0106403D01*
X0180411Y0106460D01*
X0180651Y0106511D01*
X0180892Y0106556D01*
X0181135Y0106595D01*
X0181378Y0106628D01*
X0181622Y0106655D01*
X0181866Y0106676D01*
X0182111Y0106691D01*
X0182357Y0106700D01*
X0182602Y0106703D01*
X0182847Y0106700D01*
X0183093Y0106691D01*
X0183338Y0106676D01*
X0183582Y0106655D01*
X0183826Y0106628D01*
X0184069Y0106595D01*
X0184312Y0106556D01*
X0184553Y0106511D01*
X0184793Y0106460D01*
X0185032Y0106403D01*
X0185269Y0106341D01*
X0185505Y0106272D01*
X0185739Y0106198D01*
X0185971Y0106118D01*
X0186201Y0106033D01*
X0186429Y0105942D01*
X0186654Y0105845D01*
X0186878Y0105743D01*
X0187098Y0105635D01*
X0187316Y0105522D01*
X0187531Y0105404D01*
X0187743Y0105280D01*
X0187952Y0105152D01*
X0188158Y0105018D01*
X0188360Y0104879D01*
X0188559Y0104735D01*
X0188754Y0104586D01*
X0188946Y0104433D01*
X0189134Y0104275D01*
X0189318Y0104113D01*
X0189497Y0103945D01*
X0189673Y0103774D01*
X0189844Y0103598D01*
X0190012Y0103419D01*
X0190174Y0103235D01*
X0190332Y0103047D01*
X0190485Y0102855D01*
X0190634Y0102660D01*
X0190778Y0102461D01*
X0190917Y0102259D01*
X0191051Y0102053D01*
X0191179Y0101844D01*
X0191303Y0101632D01*
X0191421Y0101417D01*
X0191534Y0101199D01*
X0191642Y0100979D01*
X0191744Y0100755D01*
X0191841Y0100530D01*
X0191932Y0100302D01*
X0192017Y0100072D01*
X0192097Y0099840D01*
X0192171Y0099606D01*
X0192240Y0099370D01*
X0192302Y0099133D01*
X0192359Y0098894D01*
X0192410Y0098654D01*
X0192455Y0098413D01*
X0192494Y0098170D01*
X0192527Y0097927D01*
X0192554Y0097683D01*
X0192575Y0097439D01*
X0192590Y0097194D01*
X0192599Y0096948D01*
X0192602Y0096703D01*
X0192599Y0096458D01*
X0192590Y0096212D01*
X0192575Y0095967D01*
X0192554Y0095723D01*
X0192527Y0095479D01*
X0192494Y0095236D01*
X0192455Y0094993D01*
X0192410Y0094752D01*
X0192359Y0094512D01*
X0192302Y0094273D01*
X0192240Y0094036D01*
X0192171Y0093800D01*
X0192097Y0093566D01*
X0192017Y0093334D01*
X0191932Y0093104D01*
X0191841Y0092876D01*
X0191744Y0092651D01*
X0191642Y0092427D01*
X0191534Y0092207D01*
X0191421Y0091989D01*
X0191303Y0091774D01*
X0191179Y0091562D01*
X0191051Y0091353D01*
X0190917Y0091147D01*
X0190778Y0090945D01*
X0190634Y0090746D01*
X0190485Y0090551D01*
X0190332Y0090359D01*
X0190174Y0090171D01*
X0190012Y0089987D01*
X0189844Y0089808D01*
X0189673Y0089632D01*
X0189497Y0089461D01*
X0189318Y0089293D01*
X0189134Y0089131D01*
X0188946Y0088973D01*
X0188754Y0088820D01*
X0188559Y0088671D01*
X0188360Y0088527D01*
X0188158Y0088388D01*
X0187952Y0088254D01*
X0187743Y0088126D01*
X0187531Y0088002D01*
X0187316Y0087884D01*
X0187098Y0087771D01*
X0186878Y0087663D01*
X0186654Y0087561D01*
X0186429Y0087464D01*
X0186201Y0087373D01*
X0185971Y0087288D01*
X0185739Y0087208D01*
X0185505Y0087134D01*
X0185269Y0087065D01*
X0185032Y0087003D01*
X0184793Y0086946D01*
X0184553Y0086895D01*
X0184312Y0086850D01*
X0184069Y0086811D01*
X0183826Y0086778D01*
X0183582Y0086751D01*
X0183338Y0086730D01*
X0183093Y0086715D01*
X0182847Y0086706D01*
X0182602Y0086703D01*
X0182357Y0086706D01*
X0182111Y0086715D01*
X0181866Y0086730D01*
X0181622Y0086751D01*
X0181378Y0086778D01*
X0181135Y0086811D01*
X0180892Y0086850D01*
X0180651Y0086895D01*
X0180411Y0086946D01*
X0180172Y0087003D01*
X0179935Y0087065D01*
X0179699Y0087134D01*
X0179465Y0087208D01*
X0179233Y0087288D01*
X0179003Y0087373D01*
X0178775Y0087464D01*
X0178550Y0087561D01*
X0178326Y0087663D01*
X0178106Y0087771D01*
X0177888Y0087884D01*
X0177673Y0088002D01*
X0177461Y0088126D01*
X0177252Y0088254D01*
X0177046Y0088388D01*
X0176844Y0088527D01*
X0176645Y0088671D01*
X0176450Y0088820D01*
X0176258Y0088973D01*
X0176070Y0089131D01*
X0175886Y0089293D01*
X0175707Y0089461D01*
X0175531Y0089632D01*
X0175360Y0089808D01*
X0175192Y0089987D01*
X0175030Y0090171D01*
X0174872Y0090359D01*
X0174719Y0090551D01*
X0174570Y0090746D01*
X0174426Y0090945D01*
X0174287Y0091147D01*
X0174153Y0091353D01*
X0174025Y0091562D01*
X0173901Y0091774D01*
X0173783Y0091989D01*
X0173670Y0092207D01*
X0173562Y0092427D01*
X0173460Y0092651D01*
X0173363Y0092876D01*
X0173272Y0093104D01*
X0173187Y0093334D01*
X0173107Y0093566D01*
X0173033Y0093800D01*
X0172964Y0094036D01*
X0172902Y0094273D01*
X0172845Y0094512D01*
X0172794Y0094752D01*
X0172749Y0094993D01*
X0172710Y0095236D01*
X0172677Y0095479D01*
X0172650Y0095723D01*
X0172629Y0095967D01*
X0172614Y0096212D01*
X0172605Y0096458D01*
X0172602Y0096703D01*
X0147984Y0119262D02*
X0147984Y0168262D01*
X0144484Y0168262D01*
X0144484Y0174262D01*
X0147984Y0174262D01*
X0147984Y0181762D01*
X0106984Y0181762D01*
X0106984Y0174262D01*
X0110484Y0174262D01*
X0110484Y0168262D01*
X0106984Y0168262D01*
X0106984Y0119262D01*
X0147984Y0119262D01*
X0145484Y0121762D02*
X0145484Y0154262D01*
X0109484Y0154262D01*
X0109484Y0121762D01*
X0145484Y0121762D01*
X0120384Y0168262D02*
X0120386Y0168436D01*
X0120393Y0168610D01*
X0120403Y0168784D01*
X0120418Y0168958D01*
X0120437Y0169131D01*
X0120461Y0169304D01*
X0120489Y0169476D01*
X0120520Y0169647D01*
X0120557Y0169818D01*
X0120597Y0169987D01*
X0120641Y0170156D01*
X0120690Y0170323D01*
X0120742Y0170489D01*
X0120799Y0170654D01*
X0120860Y0170817D01*
X0120924Y0170979D01*
X0120993Y0171139D01*
X0121066Y0171298D01*
X0121142Y0171454D01*
X0121222Y0171609D01*
X0121306Y0171762D01*
X0121394Y0171912D01*
X0121486Y0172060D01*
X0121581Y0172207D01*
X0121679Y0172350D01*
X0121781Y0172491D01*
X0121887Y0172630D01*
X0121996Y0172766D01*
X0122108Y0172900D01*
X0122223Y0173030D01*
X0122342Y0173158D01*
X0122464Y0173282D01*
X0122588Y0173404D01*
X0122716Y0173523D01*
X0122846Y0173638D01*
X0122980Y0173750D01*
X0123116Y0173859D01*
X0123255Y0173965D01*
X0123396Y0174067D01*
X0123539Y0174165D01*
X0123686Y0174260D01*
X0123834Y0174352D01*
X0123984Y0174440D01*
X0124137Y0174524D01*
X0124292Y0174604D01*
X0124448Y0174680D01*
X0124607Y0174753D01*
X0124767Y0174822D01*
X0124929Y0174886D01*
X0125092Y0174947D01*
X0125257Y0175004D01*
X0125423Y0175056D01*
X0125590Y0175105D01*
X0125759Y0175149D01*
X0125928Y0175189D01*
X0126099Y0175226D01*
X0126270Y0175257D01*
X0126442Y0175285D01*
X0126615Y0175309D01*
X0126788Y0175328D01*
X0126962Y0175343D01*
X0127136Y0175353D01*
X0127310Y0175360D01*
X0127484Y0175362D01*
X0127658Y0175360D01*
X0127832Y0175353D01*
X0128006Y0175343D01*
X0128180Y0175328D01*
X0128353Y0175309D01*
X0128526Y0175285D01*
X0128698Y0175257D01*
X0128869Y0175226D01*
X0129040Y0175189D01*
X0129209Y0175149D01*
X0129378Y0175105D01*
X0129545Y0175056D01*
X0129711Y0175004D01*
X0129876Y0174947D01*
X0130039Y0174886D01*
X0130201Y0174822D01*
X0130361Y0174753D01*
X0130520Y0174680D01*
X0130676Y0174604D01*
X0130831Y0174524D01*
X0130984Y0174440D01*
X0131134Y0174352D01*
X0131282Y0174260D01*
X0131429Y0174165D01*
X0131572Y0174067D01*
X0131713Y0173965D01*
X0131852Y0173859D01*
X0131988Y0173750D01*
X0132122Y0173638D01*
X0132252Y0173523D01*
X0132380Y0173404D01*
X0132504Y0173282D01*
X0132626Y0173158D01*
X0132745Y0173030D01*
X0132860Y0172900D01*
X0132972Y0172766D01*
X0133081Y0172630D01*
X0133187Y0172491D01*
X0133289Y0172350D01*
X0133387Y0172207D01*
X0133482Y0172060D01*
X0133574Y0171912D01*
X0133662Y0171762D01*
X0133746Y0171609D01*
X0133826Y0171454D01*
X0133902Y0171298D01*
X0133975Y0171139D01*
X0134044Y0170979D01*
X0134108Y0170817D01*
X0134169Y0170654D01*
X0134226Y0170489D01*
X0134278Y0170323D01*
X0134327Y0170156D01*
X0134371Y0169987D01*
X0134411Y0169818D01*
X0134448Y0169647D01*
X0134479Y0169476D01*
X0134507Y0169304D01*
X0134531Y0169131D01*
X0134550Y0168958D01*
X0134565Y0168784D01*
X0134575Y0168610D01*
X0134582Y0168436D01*
X0134584Y0168262D01*
X0134582Y0168088D01*
X0134575Y0167914D01*
X0134565Y0167740D01*
X0134550Y0167566D01*
X0134531Y0167393D01*
X0134507Y0167220D01*
X0134479Y0167048D01*
X0134448Y0166877D01*
X0134411Y0166706D01*
X0134371Y0166537D01*
X0134327Y0166368D01*
X0134278Y0166201D01*
X0134226Y0166035D01*
X0134169Y0165870D01*
X0134108Y0165707D01*
X0134044Y0165545D01*
X0133975Y0165385D01*
X0133902Y0165226D01*
X0133826Y0165070D01*
X0133746Y0164915D01*
X0133662Y0164762D01*
X0133574Y0164612D01*
X0133482Y0164464D01*
X0133387Y0164317D01*
X0133289Y0164174D01*
X0133187Y0164033D01*
X0133081Y0163894D01*
X0132972Y0163758D01*
X0132860Y0163624D01*
X0132745Y0163494D01*
X0132626Y0163366D01*
X0132504Y0163242D01*
X0132380Y0163120D01*
X0132252Y0163001D01*
X0132122Y0162886D01*
X0131988Y0162774D01*
X0131852Y0162665D01*
X0131713Y0162559D01*
X0131572Y0162457D01*
X0131429Y0162359D01*
X0131282Y0162264D01*
X0131134Y0162172D01*
X0130984Y0162084D01*
X0130831Y0162000D01*
X0130676Y0161920D01*
X0130520Y0161844D01*
X0130361Y0161771D01*
X0130201Y0161702D01*
X0130039Y0161638D01*
X0129876Y0161577D01*
X0129711Y0161520D01*
X0129545Y0161468D01*
X0129378Y0161419D01*
X0129209Y0161375D01*
X0129040Y0161335D01*
X0128869Y0161298D01*
X0128698Y0161267D01*
X0128526Y0161239D01*
X0128353Y0161215D01*
X0128180Y0161196D01*
X0128006Y0161181D01*
X0127832Y0161171D01*
X0127658Y0161164D01*
X0127484Y0161162D01*
X0127310Y0161164D01*
X0127136Y0161171D01*
X0126962Y0161181D01*
X0126788Y0161196D01*
X0126615Y0161215D01*
X0126442Y0161239D01*
X0126270Y0161267D01*
X0126099Y0161298D01*
X0125928Y0161335D01*
X0125759Y0161375D01*
X0125590Y0161419D01*
X0125423Y0161468D01*
X0125257Y0161520D01*
X0125092Y0161577D01*
X0124929Y0161638D01*
X0124767Y0161702D01*
X0124607Y0161771D01*
X0124448Y0161844D01*
X0124292Y0161920D01*
X0124137Y0162000D01*
X0123984Y0162084D01*
X0123834Y0162172D01*
X0123686Y0162264D01*
X0123539Y0162359D01*
X0123396Y0162457D01*
X0123255Y0162559D01*
X0123116Y0162665D01*
X0122980Y0162774D01*
X0122846Y0162886D01*
X0122716Y0163001D01*
X0122588Y0163120D01*
X0122464Y0163242D01*
X0122342Y0163366D01*
X0122223Y0163494D01*
X0122108Y0163624D01*
X0121996Y0163758D01*
X0121887Y0163894D01*
X0121781Y0164033D01*
X0121679Y0164174D01*
X0121581Y0164317D01*
X0121486Y0164464D01*
X0121394Y0164612D01*
X0121306Y0164762D01*
X0121222Y0164915D01*
X0121142Y0165070D01*
X0121066Y0165226D01*
X0120993Y0165385D01*
X0120924Y0165545D01*
X0120860Y0165707D01*
X0120799Y0165870D01*
X0120742Y0166035D01*
X0120690Y0166201D01*
X0120641Y0166368D01*
X0120597Y0166537D01*
X0120557Y0166706D01*
X0120520Y0166877D01*
X0120489Y0167048D01*
X0120461Y0167220D01*
X0120437Y0167393D01*
X0120418Y0167566D01*
X0120403Y0167740D01*
X0120393Y0167914D01*
X0120386Y0168088D01*
X0120384Y0168262D01*
X0179102Y0047585D02*
X0179102Y0046585D01*
X0179602Y0046085D01*
X0179602Y0037085D01*
X0179102Y0036585D01*
X0179102Y0035585D01*
X0179104Y0035525D01*
X0179109Y0035464D01*
X0179118Y0035405D01*
X0179131Y0035346D01*
X0179147Y0035287D01*
X0179167Y0035230D01*
X0179190Y0035175D01*
X0179217Y0035120D01*
X0179246Y0035068D01*
X0179279Y0035017D01*
X0179315Y0034968D01*
X0179353Y0034922D01*
X0179395Y0034878D01*
X0179439Y0034836D01*
X0179485Y0034798D01*
X0179534Y0034762D01*
X0179585Y0034729D01*
X0179637Y0034700D01*
X0179692Y0034673D01*
X0179747Y0034650D01*
X0179804Y0034630D01*
X0179863Y0034614D01*
X0179922Y0034601D01*
X0179981Y0034592D01*
X0180042Y0034587D01*
X0180102Y0034585D01*
X0185102Y0034585D02*
X0185162Y0034587D01*
X0185223Y0034592D01*
X0185282Y0034601D01*
X0185341Y0034614D01*
X0185400Y0034630D01*
X0185457Y0034650D01*
X0185512Y0034673D01*
X0185567Y0034700D01*
X0185619Y0034729D01*
X0185670Y0034762D01*
X0185719Y0034798D01*
X0185765Y0034836D01*
X0185809Y0034878D01*
X0185851Y0034922D01*
X0185889Y0034968D01*
X0185925Y0035017D01*
X0185958Y0035068D01*
X0185987Y0035120D01*
X0186014Y0035175D01*
X0186037Y0035230D01*
X0186057Y0035287D01*
X0186073Y0035346D01*
X0186086Y0035405D01*
X0186095Y0035464D01*
X0186100Y0035525D01*
X0186102Y0035585D01*
X0186102Y0036585D01*
X0185602Y0037085D01*
X0185602Y0046085D01*
X0186102Y0046585D01*
X0186102Y0047585D01*
X0186100Y0047645D01*
X0186095Y0047706D01*
X0186086Y0047765D01*
X0186073Y0047824D01*
X0186057Y0047883D01*
X0186037Y0047940D01*
X0186014Y0047995D01*
X0185987Y0048050D01*
X0185958Y0048102D01*
X0185925Y0048153D01*
X0185889Y0048202D01*
X0185851Y0048248D01*
X0185809Y0048292D01*
X0185765Y0048334D01*
X0185719Y0048372D01*
X0185670Y0048408D01*
X0185619Y0048441D01*
X0185567Y0048470D01*
X0185512Y0048497D01*
X0185457Y0048520D01*
X0185400Y0048540D01*
X0185341Y0048556D01*
X0185282Y0048569D01*
X0185223Y0048578D01*
X0185162Y0048583D01*
X0185102Y0048585D01*
X0180102Y0048585D02*
X0180042Y0048583D01*
X0179981Y0048578D01*
X0179922Y0048569D01*
X0179863Y0048556D01*
X0179804Y0048540D01*
X0179747Y0048520D01*
X0179692Y0048497D01*
X0179637Y0048470D01*
X0179585Y0048441D01*
X0179534Y0048408D01*
X0179485Y0048372D01*
X0179439Y0048334D01*
X0179395Y0048292D01*
X0179353Y0048248D01*
X0179315Y0048202D01*
X0179279Y0048153D01*
X0179246Y0048102D01*
X0179217Y0048050D01*
X0179190Y0047995D01*
X0179167Y0047940D01*
X0179147Y0047883D01*
X0179131Y0047824D01*
X0179118Y0047765D01*
X0179109Y0047706D01*
X0179104Y0047645D01*
X0179102Y0047585D01*
D11*
X0140295Y0081892D02*
X0140295Y0084892D01*
X0140295Y0087892D01*
X0138295Y0087892D02*
X0138295Y0084892D01*
X0138295Y0081892D01*
X0112736Y0081892D02*
X0112736Y0084892D01*
X0112736Y0087892D01*
X0110736Y0087892D02*
X0110736Y0084892D01*
X0110736Y0081892D01*
X0175102Y0086703D02*
X0174859Y0086890D01*
X0174621Y0087082D01*
X0174388Y0087281D01*
X0174160Y0087485D01*
X0173937Y0087694D01*
X0173719Y0087909D01*
X0173506Y0088129D01*
X0173299Y0088354D01*
X0173097Y0088585D01*
X0172901Y0088820D01*
X0172711Y0089060D01*
X0172527Y0089304D01*
X0172349Y0089553D01*
X0172177Y0089807D01*
X0172011Y0090064D01*
X0171851Y0090325D01*
X0171698Y0090590D01*
X0171552Y0090859D01*
X0171412Y0091132D01*
X0171279Y0091407D01*
X0171153Y0091686D01*
X0171033Y0091968D01*
X0170921Y0092253D01*
X0170816Y0092540D01*
X0170717Y0092830D01*
X0170626Y0093122D01*
X0170542Y0093417D01*
X0170465Y0093713D01*
X0170395Y0094011D01*
X0170333Y0094311D01*
X0170278Y0094612D01*
X0170231Y0094914D01*
X0170191Y0095218D01*
X0170158Y0095522D01*
X0170133Y0095827D01*
X0170115Y0096133D01*
X0170105Y0096439D01*
X0170102Y0096745D01*
X0170107Y0097051D01*
X0170119Y0097357D01*
X0170139Y0097663D01*
X0170166Y0097967D01*
X0170201Y0098272D01*
X0170243Y0098575D01*
X0170292Y0098877D01*
X0170349Y0099178D01*
X0170414Y0099477D01*
X0170485Y0099775D01*
X0170564Y0100070D01*
X0170650Y0100364D01*
X0170743Y0100656D01*
X0170844Y0100945D01*
X0170951Y0101232D01*
X0171066Y0101516D01*
X0171187Y0101797D01*
X0171315Y0102075D01*
X0171450Y0102350D01*
X0171592Y0102621D01*
X0171740Y0102889D01*
X0171895Y0103153D01*
X0172056Y0103413D01*
X0172223Y0103669D01*
X0172397Y0103922D01*
X0172577Y0104169D01*
X0172763Y0104413D01*
X0172954Y0104651D01*
X0173152Y0104885D01*
X0173355Y0105114D01*
X0173564Y0105338D01*
X0173778Y0105557D01*
X0173998Y0105770D01*
X0174222Y0105978D01*
X0174452Y0106181D01*
X0174686Y0106377D01*
X0174926Y0106568D01*
X0175169Y0106753D01*
X0175418Y0106932D01*
X0175670Y0107105D01*
X0175927Y0107272D01*
X0176188Y0107432D01*
X0176453Y0107586D01*
X0176721Y0107733D01*
X0176993Y0107874D01*
X0177268Y0108008D01*
X0177547Y0108135D01*
X0177828Y0108256D01*
X0178113Y0108369D01*
X0178400Y0108475D01*
X0178689Y0108575D01*
X0178981Y0108667D01*
X0179275Y0108752D01*
X0179571Y0108830D01*
X0179869Y0108901D01*
X0180169Y0108964D01*
X0180470Y0109020D01*
X0180772Y0109068D01*
X0181075Y0109109D01*
X0181379Y0109143D01*
X0181684Y0109169D01*
X0181990Y0109188D01*
X0182296Y0109199D01*
X0182602Y0109203D01*
X0182908Y0109199D01*
X0183214Y0109188D01*
X0183520Y0109169D01*
X0183825Y0109143D01*
X0184129Y0109109D01*
X0184432Y0109068D01*
X0184734Y0109020D01*
X0185035Y0108964D01*
X0185335Y0108901D01*
X0185633Y0108830D01*
X0185929Y0108752D01*
X0186223Y0108667D01*
X0186515Y0108575D01*
X0186804Y0108475D01*
X0187091Y0108369D01*
X0187376Y0108256D01*
X0187657Y0108135D01*
X0187936Y0108008D01*
X0188211Y0107874D01*
X0188483Y0107733D01*
X0188751Y0107586D01*
X0189016Y0107432D01*
X0189277Y0107272D01*
X0189534Y0107105D01*
X0189786Y0106932D01*
X0190035Y0106753D01*
X0190278Y0106568D01*
X0190518Y0106377D01*
X0190752Y0106181D01*
X0190982Y0105978D01*
X0191206Y0105770D01*
X0191426Y0105557D01*
X0191640Y0105338D01*
X0191849Y0105114D01*
X0192052Y0104885D01*
X0192250Y0104651D01*
X0192441Y0104413D01*
X0192627Y0104169D01*
X0192807Y0103922D01*
X0192981Y0103669D01*
X0193148Y0103413D01*
X0193309Y0103153D01*
X0193464Y0102889D01*
X0193612Y0102621D01*
X0193754Y0102350D01*
X0193889Y0102075D01*
X0194017Y0101797D01*
X0194138Y0101516D01*
X0194253Y0101232D01*
X0194360Y0100945D01*
X0194461Y0100656D01*
X0194554Y0100364D01*
X0194640Y0100070D01*
X0194719Y0099775D01*
X0194790Y0099477D01*
X0194855Y0099178D01*
X0194912Y0098877D01*
X0194961Y0098575D01*
X0195003Y0098272D01*
X0195038Y0097967D01*
X0195065Y0097663D01*
X0195085Y0097357D01*
X0195097Y0097051D01*
X0195102Y0096745D01*
X0195099Y0096439D01*
X0195089Y0096133D01*
X0195071Y0095827D01*
X0195046Y0095522D01*
X0195013Y0095218D01*
X0194973Y0094914D01*
X0194926Y0094612D01*
X0194871Y0094311D01*
X0194809Y0094011D01*
X0194739Y0093713D01*
X0194662Y0093417D01*
X0194578Y0093122D01*
X0194487Y0092830D01*
X0194388Y0092540D01*
X0194283Y0092253D01*
X0194171Y0091968D01*
X0194051Y0091686D01*
X0193925Y0091407D01*
X0193792Y0091132D01*
X0193652Y0090859D01*
X0193506Y0090590D01*
X0193353Y0090325D01*
X0193193Y0090064D01*
X0193027Y0089807D01*
X0192855Y0089553D01*
X0192677Y0089304D01*
X0192493Y0089060D01*
X0192303Y0088820D01*
X0192107Y0088585D01*
X0191905Y0088354D01*
X0191698Y0088129D01*
X0191485Y0087909D01*
X0191267Y0087694D01*
X0191044Y0087485D01*
X0190816Y0087281D01*
X0190583Y0087082D01*
X0190345Y0086890D01*
X0190102Y0086703D01*
D12*
X0072287Y0083254D03*
D13*
X0117484Y0117512D03*
X0127484Y0117512D03*
X0137484Y0117512D03*
D14*
X0132836Y0155562D02*
X0132836Y0157214D01*
X0132285Y0157764D01*
X0131735Y0157214D01*
X0131735Y0155562D01*
X0130634Y0155562D02*
X0130634Y0157764D01*
X0131184Y0157764D01*
X0131735Y0157214D01*
X0129244Y0157214D02*
X0129244Y0155562D01*
X0128144Y0155562D02*
X0128144Y0157214D01*
X0128694Y0157764D01*
X0129244Y0157214D01*
X0128144Y0157214D02*
X0127593Y0157764D01*
X0127043Y0157764D01*
X0127043Y0155562D01*
X0125653Y0155562D02*
X0123452Y0155562D01*
X0125653Y0157764D01*
X0125653Y0158315D01*
X0125103Y0158865D01*
X0124002Y0158865D01*
X0123452Y0158315D01*
X0122158Y0156113D02*
X0121608Y0156113D01*
X0121608Y0155562D01*
X0122158Y0155562D01*
X0122158Y0156113D01*
X0122158Y0155562D02*
X0121058Y0154461D01*
X0119668Y0156113D02*
X0119668Y0157214D01*
X0119118Y0157764D01*
X0118567Y0157764D01*
X0117466Y0157214D01*
X0117466Y0158865D01*
X0119668Y0158865D01*
X0119668Y0156113D02*
X0119118Y0155562D01*
X0118017Y0155562D01*
X0117466Y0156113D01*
X0116077Y0155562D02*
X0113875Y0155562D01*
X0114976Y0155562D02*
X0114976Y0158865D01*
X0113875Y0157764D01*
X0112486Y0157764D02*
X0112486Y0155562D01*
X0112486Y0157214D02*
X0110284Y0157214D01*
X0110284Y0157764D02*
X0111385Y0158865D01*
X0112486Y0157764D01*
X0110284Y0157764D02*
X0110284Y0155562D01*
D15*
X0072953Y0187282D02*
X0072186Y0186515D01*
X0070651Y0186515D01*
X0069884Y0187282D01*
X0072953Y0190352D01*
X0072953Y0187282D01*
X0072953Y0190352D02*
X0072186Y0191119D01*
X0070651Y0191119D01*
X0069884Y0190352D01*
X0069884Y0187282D01*
X0068349Y0187282D02*
X0068349Y0186515D01*
X0067582Y0186515D01*
X0067582Y0187282D01*
X0068349Y0187282D01*
X0066047Y0186515D02*
X0062978Y0186515D01*
X0064512Y0186515D02*
X0064512Y0191119D01*
X0062978Y0189584D01*
X0061443Y0188050D02*
X0061443Y0191119D01*
X0058374Y0191119D02*
X0058374Y0188050D01*
X0059909Y0186515D01*
X0061443Y0188050D01*
X0052235Y0189584D02*
X0050701Y0189584D01*
X0051468Y0190352D02*
X0051468Y0187282D01*
X0052235Y0186515D01*
X0049166Y0188050D02*
X0046097Y0188050D01*
X0046097Y0188817D02*
X0046097Y0187282D01*
X0046864Y0186515D01*
X0048399Y0186515D01*
X0049166Y0188050D02*
X0049166Y0188817D01*
X0048399Y0189584D01*
X0046864Y0189584D01*
X0046097Y0188817D01*
X0044562Y0189584D02*
X0042260Y0189584D01*
X0041493Y0188817D01*
X0041493Y0187282D01*
X0042260Y0186515D01*
X0044562Y0186515D01*
X0044562Y0185748D02*
X0043795Y0184980D01*
X0043027Y0184980D01*
X0044562Y0185748D02*
X0044562Y0189584D01*
X0039958Y0189584D02*
X0037656Y0189584D01*
X0036889Y0188817D01*
X0036889Y0187282D01*
X0037656Y0186515D01*
X0039958Y0186515D01*
X0039958Y0191119D01*
X0034587Y0191119D02*
X0034587Y0191886D01*
X0034587Y0189584D02*
X0033820Y0189584D01*
X0034587Y0189584D02*
X0034587Y0186515D01*
X0033820Y0186515D02*
X0035354Y0186515D01*
X0032285Y0186515D02*
X0032285Y0191119D01*
X0029216Y0191119D02*
X0029216Y0186515D01*
X0030750Y0188050D01*
X0032285Y0186515D01*
X0023077Y0187282D02*
X0023077Y0190352D01*
X0022310Y0191119D01*
X0020008Y0191119D01*
X0020008Y0186515D01*
X0022310Y0186515D01*
X0023077Y0187282D01*
X0018473Y0186515D02*
X0015404Y0186515D01*
X0015404Y0191119D01*
X0018473Y0191119D01*
X0016939Y0188817D02*
X0015404Y0188817D01*
X0013869Y0186515D02*
X0010800Y0186515D01*
X0010800Y0191119D01*
M02*
