%
M48
M72
T01C0.03200
T02C0.03937
T03C0.04000
T04C0.13000
%
T01
X72287Y72254
X72287Y102254
X106736Y84892
X116736Y84892
X134295Y84892
X144295Y84892
X182602Y91703
X182602Y101703
X182602Y51585
X182602Y31585
T02
X57012Y104577
X44807Y85680
X32996Y104577
T03
X71340Y9100
X89140Y9100
X89140Y34700
X71340Y34700
X117484Y109262
X127484Y109262
X137484Y109262
T04
X127484Y168262
M30
